<svg width="357" height="507" viewBox="0 0 357 507" fill="none" xmlns="http://www.w3.org/2000/svg">
<g filter="url(#filter0_i_1189_6295)">
<rect width="357" height="507" rx="20" fill="url(#paint0_linear_1189_6295)"/>
<path d="M234.477 257.523C234.477 259.443 232.92 261 231 261H189.974C188.054 261 186.497 262.557 186.497 264.477V302.523C186.497 304.443 184.94 306 183.02 306H173.98C172.06 306 170.504 304.443 170.504 302.523V264.477C170.504 262.557 168.947 261 167.027 261H126C124.08 261 122.523 259.443 122.523 257.523V249.477C122.523 247.557 124.08 246 126 246H167.027C168.947 246 170.504 244.443 170.504 242.523V204.477C170.504 202.557 172.06 201 173.98 201H183.02C184.94 201 186.497 202.557 186.497 204.477V242.523C186.497 244.443 188.054 246 189.974 246H231C232.92 246 234.477 247.557 234.477 249.477V257.523Z" fill="white" fill-opacity="0.8"/>
</g>
<defs>
<filter id="filter0_i_1189_6295" x="-45" y="-45" width="447" height="597" filterUnits="userSpaceOnUse" color-interpolation-filters="sRGB">
<feFlood flood-opacity="0" result="BackgroundImageFix"/>
<feBlend mode="normal" in="SourceGraphic" in2="BackgroundImageFix" result="shape"/>
<feColorMatrix in="SourceAlpha" type="matrix" values="0 0 0 0 0 0 0 0 0 0 0 0 0 0 0 0 0 0 127 0" result="hardAlpha"/>
<feOffset/>
<feGaussianBlur stdDeviation="10"/>
<feComposite in2="hardAlpha" operator="arithmetic" k2="-1" k3="1"/>
<feColorMatrix type="matrix" values="0 0 0 0 1 0 0 0 0 1 0 0 0 0 1 0 0 0 0.5 0"/>
<feBlend mode="normal" in2="shape" result="effect1_innerShadow_1189_6295"/>
</filter>
<linearGradient id="paint0_linear_1189_6295" x1="178.5" y1="0" x2="178.5" y2="507" gradientUnits="userSpaceOnUse">
<stop stop-color="white" stop-opacity="0.3"/>
<stop offset="1" stop-color="white" stop-opacity="0.2"/>
</linearGradient>
</defs>
</svg>
