<svg width="141" height="15" viewBox="0 0 141 15" fill="none" xmlns="http://www.w3.org/2000/svg">
<path d="M70.4607 5.45455L68.0872 12H66.7235L64.3457 5.45455H65.7136L67.3712 10.4915H67.4394L69.0928 5.45455H70.4607ZM76.323 7.05256L75.1682 7.2571C75.1199 7.10937 75.0432 6.96875 74.9381 6.83523C74.8358 6.7017 74.6966 6.59233 74.5204 6.5071C74.3443 6.42187 74.1241 6.37926 73.8599 6.37926C73.4991 6.37926 73.198 6.46023 72.9565 6.62216C72.715 6.78125 72.5943 6.98722 72.5943 7.24006C72.5943 7.45881 72.6753 7.63494 72.8372 7.76847C72.9991 7.90199 73.2605 8.01136 73.6213 8.09659L74.6611 8.33523C75.2633 8.47443 75.7122 8.68892 76.0077 8.97869C76.3031 9.26847 76.4508 9.64489 76.4508 10.108C76.4508 10.5 76.3372 10.8494 76.1099 11.1562C75.8855 11.4602 75.5716 11.6989 75.1682 11.8722C74.7676 12.0455 74.3031 12.1321 73.7747 12.1321C73.0418 12.1321 72.4437 11.9759 71.9807 11.6634C71.5176 11.348 71.2335 10.9006 71.1284 10.321L72.3599 10.1335C72.4366 10.4545 72.5943 10.6974 72.8329 10.8622C73.0716 11.0241 73.3827 11.1051 73.7662 11.1051C74.1838 11.1051 74.5176 11.0185 74.7676 10.8452C75.0176 10.669 75.1426 10.4545 75.1426 10.2017C75.1426 9.99716 75.0659 9.82528 74.9125 9.68608C74.7619 9.54687 74.5304 9.44176 74.2179 9.37074L73.1099 9.12784C72.4991 8.98864 72.0474 8.76705 71.7548 8.46307C71.465 8.15909 71.3202 7.77415 71.3202 7.30824C71.3202 6.92187 71.4281 6.58381 71.644 6.29403C71.8599 6.00426 72.1582 5.77841 72.5389 5.61648C72.9196 5.4517 73.3557 5.36932 73.8472 5.36932C74.5545 5.36932 75.1114 5.52273 75.5176 5.82955C75.9239 6.13352 76.1923 6.54119 76.323 7.05256Z" fill="#7B83B1"/>
<line x1="80.5" y1="7.85" x2="140.5" y2="7.84999" stroke="#7B83B1" stroke-width="0.3"/>
<line x1="0.5" y1="7.85" x2="60.5" y2="7.84999" stroke="#7B83B1" stroke-width="0.3"/>
</svg>
