<svg width="60" height="60" viewBox="0 0 60 60" fill="none" xmlns="http://www.w3.org/2000/svg">
<g opacity="0.8">
<rect width="60" height="60" rx="30" fill="#ABABAB"/>
<path d="M23.3333 30.0002C23.3333 30.7074 23.0524 31.3857 22.5523 31.8858C22.0522 32.3859 21.3739 32.6668 20.6667 32.6668C19.9594 32.6668 19.2811 32.3859 18.781 31.8858C18.281 31.3857 18 30.7074 18 30.0002C18 29.2929 18.281 28.6146 18.781 28.1145C19.2811 27.6144 19.9594 27.3335 20.6667 27.3335C21.3739 27.3335 22.0522 27.6144 22.5523 28.1145C23.0524 28.6146 23.3333 29.2929 23.3333 30.0002ZM32.6667 30.0002C32.6667 30.7074 32.3857 31.3857 31.8856 31.8858C31.3855 32.3859 30.7072 32.6668 30 32.6668C29.2928 32.6668 28.6145 32.3859 28.1144 31.8858C27.6143 31.3857 27.3333 30.7074 27.3333 30.0002C27.3333 29.2929 27.6143 28.6146 28.1144 28.1145C28.6145 27.6144 29.2928 27.3335 30 27.3335C30.7072 27.3335 31.3855 27.6144 31.8856 28.1145C32.3857 28.6146 32.6667 29.2929 32.6667 30.0002ZM42 30.0002C42 30.7074 41.719 31.3857 41.219 31.8858C40.7189 32.3859 40.0406 32.6668 39.3333 32.6668C38.6261 32.6668 37.9478 32.3859 37.4477 31.8858C36.9476 31.3857 36.6667 30.7074 36.6667 30.0002C36.6667 29.2929 36.9476 28.6146 37.4477 28.1145C37.9478 27.6144 38.6261 27.3335 39.3333 27.3335C40.0406 27.3335 40.7189 27.6144 41.219 28.1145C41.719 28.6146 42 29.2929 42 30.0002Z" fill="white"/>
</g>
</svg>
