<svg width="60" height="60" viewBox="0 0 60 60" fill="none" xmlns="http://www.w3.org/2000/svg">
<g opacity="0.8">
<rect width="60" height="60" rx="30" fill="#7B83B1"/>
<path d="M18.0706 21.5455L22.2894 34.8068H22.4513L26.6786 21.5455H30.7695L24.7524 39H19.9967L13.9712 21.5455H18.0706ZM41.8591 26.5653C41.7909 25.8778 41.4983 25.3437 40.9812 24.9631C40.4642 24.5824 39.7625 24.392 38.8761 24.392C38.2738 24.392 37.7653 24.4773 37.3506 24.6477C36.9358 24.8125 36.6176 25.0426 36.396 25.3381C36.1801 25.6335 36.0721 25.9688 36.0721 26.3438C36.0608 26.6562 36.1261 26.929 36.2682 27.1619C36.4159 27.3949 36.6176 27.5966 36.8733 27.767C37.129 27.9318 37.4244 28.0767 37.7596 28.2017C38.0949 28.321 38.4528 28.4233 38.8335 28.5085L40.4017 28.8835C41.1631 29.054 41.8619 29.2812 42.4983 29.5653C43.1346 29.8494 43.6858 30.1989 44.1517 30.6136C44.6176 31.0284 44.9784 31.517 45.2341 32.0795C45.4954 32.642 45.629 33.2869 45.6346 34.0142C45.629 35.0824 45.3562 36.0085 44.8165 36.7926C44.2824 37.571 43.5096 38.1761 42.4983 38.608C41.4926 39.0341 40.2795 39.2472 38.8591 39.2472C37.45 39.2472 36.2227 39.0312 35.1773 38.5994C34.1375 38.1676 33.325 37.5284 32.7398 36.6818C32.1602 35.8295 31.8562 34.7756 31.8278 33.5199H35.3988C35.4386 34.1051 35.6062 34.5937 35.9017 34.9858C36.2028 35.3722 36.6034 35.6648 37.1034 35.8636C37.6091 36.0568 38.1801 36.1534 38.8165 36.1534C39.4415 36.1534 39.9841 36.0625 40.4443 35.8807C40.9102 35.6989 41.271 35.446 41.5267 35.1222C41.7824 34.7983 41.9102 34.4261 41.9102 34.0057C41.9102 33.6136 41.7937 33.2841 41.5608 33.017C41.3335 32.75 40.9983 32.5227 40.5551 32.3352C40.1176 32.1477 39.5807 31.9773 38.9443 31.8239L37.0437 31.3466C35.5721 30.9886 34.4102 30.429 33.5579 29.6676C32.7057 28.9062 32.2824 27.8807 32.2881 26.5909C32.2824 25.5341 32.5636 24.6108 33.1318 23.821C33.7057 23.0312 34.4926 22.4148 35.4926 21.9716C36.4926 21.5284 37.629 21.3068 38.9017 21.3068C40.1971 21.3068 41.3278 21.5284 42.2937 21.9716C43.2653 22.4148 44.021 23.0312 44.5608 23.821C45.1006 24.6108 45.379 25.5256 45.396 26.5653H41.8591Z" fill="white"/>
</g>
</svg>
