<svg width="60" height="60" viewBox="0 0 60 60" fill="none" xmlns="http://www.w3.org/2000/svg">
<g opacity="0.8">
<rect width="60" height="60" rx="30" fill="#7B83B1"/>
<path d="M21.5856 43.7162V24.8266C21.5856 23.8843 21.9282 23.0847 22.6136 22.4279C23.2989 21.7711 24.1127 21.4427 25.0551 21.4427H43.859C44.8014 21.4427 45.6081 21.7783 46.2791 22.4493C46.9502 23.1204 47.2857 23.9271 47.2857 24.8694V38.5762L38.719 47.1429H25.0122C24.0699 47.1429 23.2632 46.8074 22.5922 46.1363C21.9211 45.4652 21.5856 44.6585 21.5856 43.7162ZM13.0617 20.1577C12.8903 19.2154 13.076 18.3659 13.6185 17.6091C14.1611 16.8524 14.9035 16.3884 15.8459 16.217L34.4356 12.9189C35.378 12.7475 36.2275 12.9331 36.9842 13.4757C37.741 14.0183 38.205 14.7607 38.3763 15.703L38.8047 18.0161H25.0122C23.1276 18.0161 21.5142 18.6871 20.1721 20.0292C18.8299 21.3714 18.1589 22.9847 18.1589 24.8694V41.2319C17.702 40.9749 17.3093 40.6322 16.981 40.2038C16.6526 39.7755 16.4455 39.2901 16.3599 38.7475L13.0617 20.1577ZM43.859 36.8628H38.719C38.2335 36.8628 37.8266 37.027 37.4982 37.3554C37.1698 37.6838 37.0057 38.0907 37.0057 38.5762V43.7162L43.859 36.8628Z" fill="white"/>
</g>
</svg>
