<svg width="60" height="60" viewBox="0 0 60 60" fill="none" xmlns="http://www.w3.org/2000/svg">
<g opacity="0.8">
<rect width="60" height="60" rx="30" fill="#597EDB"/>
<path d="M23.3333 29.9999C23.3333 30.7072 23.0524 31.3854 22.5523 31.8855C22.0522 32.3856 21.3739 32.6666 20.6667 32.6666C19.9594 32.6666 19.2811 32.3856 18.781 31.8855C18.281 31.3854 18 30.7072 18 29.9999C18 29.2927 18.281 28.6144 18.781 28.1143C19.2811 27.6142 19.9594 27.3333 20.6667 27.3333C21.3739 27.3333 22.0522 27.6142 22.5523 28.1143C23.0524 28.6144 23.3333 29.2927 23.3333 29.9999ZM32.6667 29.9999C32.6667 30.7072 32.3857 31.3854 31.8856 31.8855C31.3855 32.3856 30.7072 32.6666 30 32.6666C29.2928 32.6666 28.6145 32.3856 28.1144 31.8855C27.6143 31.3854 27.3333 30.7072 27.3333 29.9999C27.3333 29.2927 27.6143 28.6144 28.1144 28.1143C28.6145 27.6142 29.2928 27.3333 30 27.3333C30.7072 27.3333 31.3855 27.6142 31.8856 28.1143C32.3857 28.6144 32.6667 29.2927 32.6667 29.9999ZM42 29.9999C42 30.7072 41.719 31.3854 41.219 31.8855C40.7189 32.3856 40.0406 32.6666 39.3333 32.6666C38.6261 32.6666 37.9478 32.3856 37.4477 31.8855C36.9476 31.3854 36.6667 30.7072 36.6667 29.9999C36.6667 29.2927 36.9476 28.6144 37.4477 28.1143C37.9478 27.6142 38.6261 27.3333 39.3333 27.3333C40.0406 27.3333 40.7189 27.6142 41.219 28.1143C41.719 28.6144 42 29.2927 42 29.9999Z" fill="white"/>
</g>
</svg>
