<svg width="41" height="41" viewBox="0 0 41 41" fill="none" xmlns="http://www.w3.org/2000/svg">
<path d="M19.4242 26.9242L14.2242 21.7242C13.8576 21.3576 13.6742 20.8909 13.6742 20.3242C13.6742 19.7576 13.8576 19.2909 14.2242 18.9242L19.4742 13.6742C19.8409 13.3076 20.2989 13.1322 20.8482 13.1482C21.3989 13.1656 21.8576 13.3576 22.2242 13.7242C22.5909 14.0909 22.7742 14.5576 22.7742 15.1242C22.7742 15.6909 22.5909 16.1576 22.2242 16.5242L20.4242 18.3242H26.8742C27.4409 18.3242 27.9076 18.5156 28.2742 18.8982C28.6409 19.2822 28.8242 19.7576 28.8242 20.3242C28.8242 20.8909 28.6322 21.3656 28.2482 21.7482C27.8656 22.1322 27.3909 22.3242 26.8242 22.3242H20.4242L22.2742 24.1742C22.6409 24.5409 22.8162 24.9996 22.8002 25.5502C22.7829 26.0996 22.5909 26.5576 22.2242 26.9242C21.8576 27.2909 21.3909 27.4742 20.8242 27.4742C20.2576 27.4742 19.7909 27.2909 19.4242 26.9242ZM20.8242 40.3242C23.5909 40.3242 26.1909 39.7989 28.6242 38.7482C31.0576 37.6989 33.1742 36.2742 34.9742 34.4742C36.7742 32.6742 38.1989 30.5576 39.2482 28.1242C40.2989 25.6909 40.8242 23.0909 40.8242 20.3242C40.8242 17.5576 40.2989 14.9576 39.2482 12.5242C38.1989 10.0909 36.7742 7.97422 34.9742 6.17422C33.1742 4.37422 31.0576 2.94889 28.6242 1.89822C26.1909 0.848885 23.5909 0.324219 20.8242 0.324219C18.0576 0.324219 15.4576 0.848885 13.0242 1.89822C10.5909 2.94889 8.47422 4.37422 6.67422 6.17422C4.87422 7.97422 3.44955 10.0909 2.40022 12.5242C1.34955 14.9576 0.824219 17.5576 0.824219 20.3242C0.824219 23.0909 1.34955 25.6909 2.40022 28.1242C3.44955 30.5576 4.87422 32.6742 6.67422 34.4742C8.47422 36.2742 10.5909 37.6989 13.0242 38.7482C15.4576 39.7989 18.0576 40.3242 20.8242 40.3242Z" fill="#597EDB"/>
</svg>
