<svg width="41" height="41" viewBox="0 0 41 41" fill="none" xmlns="http://www.w3.org/2000/svg">
<path d="M21.5758 26.9242L26.7758 21.7242C27.1424 21.3576 27.3258 20.8909 27.3258 20.3242C27.3258 19.7576 27.1424 19.2909 26.7758 18.9242L21.5258 13.6742C21.1591 13.3076 20.7011 13.1322 20.1518 13.1482C19.6011 13.1656 19.1424 13.3576 18.7758 13.7242C18.4091 14.0909 18.2258 14.5576 18.2258 15.1242C18.2258 15.6909 18.4091 16.1576 18.7758 16.5242L20.5758 18.3242H14.1258C13.5591 18.3242 13.0924 18.5156 12.7258 18.8982C12.3591 19.2822 12.1758 19.7576 12.1758 20.3242C12.1758 20.8909 12.3678 21.3656 12.7518 21.7482C13.1344 22.1322 13.6091 22.3242 14.1758 22.3242H20.5758L18.7258 24.1742C18.3591 24.5409 18.1838 24.9996 18.1998 25.5502C18.2171 26.0996 18.4091 26.5576 18.7758 26.9242C19.1424 27.2909 19.6091 27.4742 20.1758 27.4742C20.7424 27.4742 21.2091 27.2909 21.5758 26.9242ZM20.1758 40.3242C17.4091 40.3242 14.8091 39.7989 12.3758 38.7482C9.94245 37.6989 7.82578 36.2742 6.02578 34.4742C4.22578 32.6742 2.80111 30.5576 1.75178 28.1242C0.701115 25.6909 0.175781 23.0909 0.175781 20.3242C0.175781 17.5576 0.701115 14.9576 1.75178 12.5242C2.80111 10.0909 4.22578 7.97422 6.02578 6.17422C7.82578 4.37422 9.94245 2.94889 12.3758 1.89822C14.8091 0.848885 17.4091 0.324219 20.1758 0.324219C22.9424 0.324219 25.5424 0.848885 27.9758 1.89822C30.4091 2.94889 32.5258 4.37422 34.3258 6.17422C36.1258 7.97422 37.5504 10.0909 38.5998 12.5242C39.6504 14.9576 40.1758 17.5576 40.1758 20.3242C40.1758 23.0909 39.6504 25.6909 38.5998 28.1242C37.5504 30.5576 36.1258 32.6742 34.3258 34.4742C32.5258 36.2742 30.4091 37.6989 27.9758 38.7482C25.5424 39.7989 22.9424 40.3242 20.1758 40.3242Z" fill="#597EDB"/>
</svg>
