<svg width="15" height="16" viewBox="0 0 15 16" fill="none" xmlns="http://www.w3.org/2000/svg">
<path d="M2.8125 15.5C2.29687 15.5 1.85562 15.3369 1.48875 15.0108C1.12125 14.6842 0.9375 14.2917 0.9375 13.8333V3C0.671875 3 0.449063 2.92028 0.269063 2.76083C0.0896877 2.60083 0 2.40278 0 2.16667C0 1.93056 0.0896877 1.7325 0.269063 1.5725C0.449063 1.41306 0.671875 1.33333 0.9375 1.33333H4.6875C4.6875 1.09722 4.7775 0.899167 4.9575 0.739167C5.13688 0.579722 5.35938 0.5 5.625 0.5H9.375C9.64062 0.5 9.86344 0.579722 10.0434 0.739167C10.2228 0.899167 10.3125 1.09722 10.3125 1.33333H14.0625C14.3281 1.33333 14.5506 1.41306 14.73 1.5725C14.91 1.7325 15 1.93056 15 2.16667C15 2.40278 14.91 2.60083 14.73 2.76083C14.5506 2.92028 14.3281 3 14.0625 3V13.8333C14.0625 14.2917 13.8791 14.6842 13.5122 15.0108C13.1447 15.3369 12.7031 15.5 12.1875 15.5H2.8125ZM4.6875 11.3333C4.6875 11.5694 4.7775 11.7672 4.9575 11.9267C5.13688 12.0867 5.35938 12.1667 5.625 12.1667C5.89062 12.1667 6.11344 12.0867 6.29344 11.9267C6.47281 11.7672 6.5625 11.5694 6.5625 11.3333V5.5C6.5625 5.26389 6.47281 5.06583 6.29344 4.90583C6.11344 4.74639 5.89062 4.66667 5.625 4.66667C5.35938 4.66667 5.13688 4.74639 4.9575 4.90583C4.7775 5.06583 4.6875 5.26389 4.6875 5.5V11.3333ZM8.4375 11.3333C8.4375 11.5694 8.5275 11.7672 8.7075 11.9267C8.88688 12.0867 9.10938 12.1667 9.375 12.1667C9.64062 12.1667 9.86344 12.0867 10.0434 11.9267C10.2228 11.7672 10.3125 11.5694 10.3125 11.3333V5.5C10.3125 5.26389 10.2228 5.06583 10.0434 4.90583C9.86344 4.74639 9.64062 4.66667 9.375 4.66667C9.10938 4.66667 8.88688 4.74639 8.7075 4.90583C8.5275 5.06583 8.4375 5.26389 8.4375 5.5V11.3333Z" fill="#A4ABD5"/>
</svg>
