<svg width="25" height="24" viewBox="0 0 25 24" fill="none" xmlns="http://www.w3.org/2000/svg">
<path d="M3.16667 24C2.43333 24 1.80578 23.7391 1.284 23.2173C0.762222 22.6956 0.500889 22.0676 0.5 21.3333V2.66667C0.5 1.93333 0.761333 1.30578 1.284 0.784C1.80667 0.262222 2.43422 0.000888889 3.16667 0H18.0667C18.4222 0 18.7613 0.0666668 19.084 0.2C19.4067 0.333333 19.6898 0.522222 19.9333 0.766667L23.7333 4.56667C23.9778 4.81111 24.1667 5.09467 24.3 5.41733C24.4333 5.74 24.5 6.07867 24.5 6.43333V21.3333C24.5 22.0667 24.2391 22.6947 23.7173 23.2173C23.1956 23.74 22.5676 24.0009 21.8333 24H3.16667ZM12.5 20C13.6111 20 14.5556 19.6111 15.3333 18.8333C16.1111 18.0556 16.5 17.1111 16.5 16C16.5 14.8889 16.1111 13.9444 15.3333 13.1667C14.5556 12.3889 13.6111 12 12.5 12C11.3889 12 10.4444 12.3889 9.66667 13.1667C8.88889 13.9444 8.5 14.8889 8.5 16C8.5 17.1111 8.88889 18.0556 9.66667 18.8333C10.4444 19.6111 11.3889 20 12.5 20ZM5.83333 9.33333H15.1667C15.5444 9.33333 15.8613 9.20533 16.1173 8.94933C16.3733 8.69333 16.5009 8.37689 16.5 8V5.33333C16.5 4.95556 16.372 4.63911 16.116 4.384C15.86 4.12889 15.5436 4.00089 15.1667 4H5.83333C5.45556 4 5.13911 4.128 4.884 4.384C4.62889 4.64 4.50089 4.95644 4.5 5.33333V8C4.5 8.37778 4.628 8.69467 4.884 8.95067C5.14 9.20667 5.45644 9.33422 5.83333 9.33333Z" fill="#A4ABD5"/>
</svg>
