<svg width="30" height="30" viewBox="0 0 30 30" fill="none" xmlns="http://www.w3.org/2000/svg">
<path d="M1.66406 15.0001C1.66406 22.3641 7.6334 28.3334 14.9974 28.3334C22.3614 28.3334 28.3307 22.3641 28.3307 15.0001C28.3307 7.63608 22.3614 1.66675 14.9974 1.66675C7.6334 1.66675 1.66406 7.63608 1.66406 15.0001Z" stroke="#252B5A" stroke-width="2.66667" stroke-linecap="round" stroke-linejoin="round"/>
<path d="M17.6615 18C17.6615 18.552 18.1095 19 18.6615 19H20.3281C20.6817 19 21.0209 18.8595 21.2709 18.6095C21.521 18.3594 21.6615 18.0203 21.6615 17.6667V16.3333C21.6615 15.9797 21.521 15.6406 21.2709 15.3905C21.0209 15.1405 20.6817 15 20.3281 15H18.9948C18.6412 15 18.302 14.8595 18.052 14.6095C17.8019 14.3594 17.6615 14.0203 17.6615 13.6667V12.3333C17.6615 11.9797 17.8019 11.6406 18.052 11.3905C18.302 11.1405 18.6412 11 18.9948 11H20.6615C20.9267 11 21.181 11.1054 21.3686 11.2929C21.5561 11.4804 21.6615 11.7348 21.6615 12M8.32812 11L10.9948 19L13.6615 11" stroke="#252B5A" stroke-width="2.66667" stroke-linecap="round" stroke-linejoin="round"/>
</svg>
